<svg width="41" height="42" viewBox="0 0 41 42" fill="none" xmlns="http://www.w3.org/2000/svg">
<path fill-rule="evenodd" clip-rule="evenodd" d="M40.8367 28.2477C39.8401 28.7518 38.855 29.3016 37.8927 29.8858C35.8126 31.076 33.9337 32.5876 32.3257 34.3646L32.0049 34.7427L31.6957 34.3646C30.0876 32.5876 28.2087 31.076 26.1286 29.8858L25.7964 29.6911C27.4414 28.4362 28.8021 26.8474 29.7893 25.0291C30.7764 23.2108 31.3675 21.2042 31.5238 19.1411C31.5976 18.3371 31.5976 17.5281 31.5238 16.7241C31.4026 15.5041 31.1055 14.3081 30.6418 13.1731C29.8807 11.1587 28.5258 9.42301 26.7564 8.1957C24.9871 6.96839 22.8867 6.30739 20.7333 6.30019H20.6532C18.5002 6.30898 16.4005 6.97062 14.6314 8.19771C12.8624 9.42481 11.5071 11.1597 10.7447 13.1731C10.2846 14.3086 9.99139 15.5046 9.87411 16.7241C9.79395 17.5278 9.79395 18.3374 9.87411 19.1411C10.0318 21.2038 10.6236 23.2099 11.6106 25.028C12.5976 26.8461 13.9576 28.4352 15.6015 29.6911L15.2808 29.8858C13.2007 31.076 11.3218 32.5876 9.71374 34.3646C7.97279 36.2405 6.96451 38.6799 6.87293 41.2376H4.58195C3.36674 41.2376 2.20131 40.7548 1.34202 39.8955C0.48274 39.0363 0 37.8708 0 36.6556V4.58195C0 3.36674 0.48274 2.2013 1.34202 1.34202C2.20131 0.482737 3.36674 0 4.58195 0H36.2547C37.4699 0 38.6353 0.482737 39.4946 1.34202C40.3539 2.2013 40.8367 3.36674 40.8367 4.58195V28.2477ZM40.8367 34.1241V36.6442C40.8367 37.8594 40.3539 39.0248 39.4946 39.8841C38.6353 40.7434 37.4699 41.2261 36.2547 41.2261H34.6167C34.7541 38.7977 37.3086 35.4185 40.8367 34.1241ZM29.3818 41.2261H11.8673C11.9818 38.855 14.0093 36.564 17.8009 34.273C18.7287 33.7117 19.6795 33.1275 20.6417 32.6922C21.6039 33.1848 22.5432 33.7117 23.4711 34.2616C27.2626 36.5525 29.3016 38.8435 29.4047 41.2261H29.3818ZM20.6188 26.9419C19.0359 26.2029 17.6743 25.0621 16.6694 23.6332C15.6645 22.2042 15.0515 20.537 14.8913 18.7975C14.8407 18.2832 14.8407 17.7653 14.8913 17.2511C14.9584 16.5195 15.1321 15.8017 15.4068 15.1204C15.7941 14.0501 16.5028 13.1256 17.4358 12.4735C18.3688 11.8214 19.4805 11.4736 20.6188 11.4778C21.76 11.4664 22.8765 11.8096 23.8143 12.4601C24.752 13.1105 25.4646 14.0361 25.8537 15.109C26.1322 15.7897 26.3097 16.5075 26.3806 17.2396C26.4313 17.7538 26.4313 18.2718 26.3806 18.786C26.2182 20.5249 25.6043 22.1911 24.5997 23.6197C23.5951 25.0483 22.2346 26.1895 20.6532 26.9304L20.6188 26.9419Z" fill="#0066FF"/>
</svg>
