<svg width="107" height="14" viewBox="0 0 107 14" fill="none" xmlns="http://www.w3.org/2000/svg">
<path d="M1.43596 13.7907C1.30006 13.7907 1.18887 13.7474 1.10238 13.6609C1.0159 13.5744 0.972656 13.4694 0.972656 13.3459V1.28132C0.972656 1.14542 1.0159 1.03422 1.10238 0.947741C1.18887 0.861256 1.30006 0.818014 1.43596 0.818014H2.90002C3.07299 0.818014 3.20272 0.867434 3.2892 0.966273C3.37568 1.05276 3.43128 1.12071 3.45599 1.17013L7.03273 7.84177L10.6465 1.17013C10.6713 1.12071 10.7268 1.05276 10.8133 0.966273C10.8998 0.867434 11.0295 0.818014 11.2025 0.818014H12.648C12.7839 0.818014 12.8951 0.861256 12.9816 0.947741C13.0681 1.03422 13.1113 1.14542 13.1113 1.28132V13.3459C13.1113 13.4694 13.0681 13.5744 12.9816 13.6609C12.8951 13.7474 12.7839 13.7907 12.648 13.7907H11.0913C10.9554 13.7907 10.8442 13.7474 10.7577 13.6609C10.6836 13.5744 10.6465 13.4694 10.6465 13.3459V5.32137L8.05201 10.2695C7.99024 10.3807 7.90993 10.4795 7.81109 10.566C7.71225 10.6402 7.58253 10.6772 7.42191 10.6772H6.66209C6.48912 10.6772 6.35321 10.6402 6.25437 10.566C6.16789 10.4795 6.09376 10.3807 6.03199 10.2695L3.43746 5.32137V13.3459C3.43746 13.4694 3.39422 13.5744 3.30773 13.6609C3.22125 13.7474 3.11623 13.7907 2.99268 13.7907H1.43596Z" fill="#0066FF"/>
<path d="M21.1645 13.976C20.0896 13.976 19.1568 13.7968 18.3661 13.4385C17.5754 13.0679 16.9639 12.5057 16.5314 11.7521C16.099 10.9861 15.8828 10.0101 15.8828 8.82399V1.28132C15.8828 1.14542 15.926 1.03422 16.0125 0.947741C16.099 0.861256 16.204 0.818014 16.3276 0.818014H18.014C18.1499 0.818014 18.2549 0.861256 18.3291 0.947741C18.4156 1.03422 18.4588 1.14542 18.4588 1.28132V8.82399C18.4588 9.83709 18.6997 10.5907 19.1816 11.0849C19.6634 11.5668 20.3244 11.8077 21.1645 11.8077C22.0047 11.8077 22.6595 11.5668 23.1289 11.0849C23.6108 10.5907 23.8517 9.83709 23.8517 8.82399V1.28132C23.8517 1.14542 23.8949 1.03422 23.9814 0.947741C24.0679 0.861256 24.1791 0.818014 24.315 0.818014H25.9829C26.1188 0.818014 26.2238 0.861256 26.298 0.947741C26.3845 1.03422 26.4277 1.14542 26.4277 1.28132V8.82399C26.4277 10.0101 26.2115 10.9861 25.7791 11.7521C25.359 12.5057 24.7536 13.0679 23.9629 13.4385C23.1845 13.7968 22.2517 13.976 21.1645 13.976Z" fill="#0066FF"/>
<path d="M29.6503 13.7907C29.5268 13.7907 29.4217 13.7474 29.3353 13.6609C29.2488 13.5744 29.2055 13.4694 29.2055 13.3459V1.26279C29.2055 1.13924 29.2488 1.03422 29.3353 0.947741C29.4217 0.861256 29.5268 0.818014 29.6503 0.818014H31.3738C31.4974 0.818014 31.6024 0.861256 31.6889 0.947741C31.7753 1.03422 31.8186 1.13924 31.8186 1.26279V11.5853H37.6933C37.8292 11.5853 37.9404 11.6285 38.0269 11.715C38.1134 11.8015 38.1566 11.9127 38.1566 12.0486V13.3459C38.1566 13.4694 38.1134 13.5744 38.0269 13.6609C37.9404 13.7474 37.8292 13.7907 37.6933 13.7907H29.6503Z" fill="#0066FF"/>
<path d="M41.1551 13.7907C41.0316 13.7907 40.9266 13.7474 40.8401 13.6609C40.7536 13.5744 40.7103 13.4694 40.7103 13.3459V3.09749H37.2819C37.1583 3.09749 37.0533 3.05425 36.9668 2.96777C36.8803 2.88128 36.8371 2.77627 36.8371 2.65272V1.28132C36.8371 1.14542 36.8803 1.03422 36.9668 0.947741C37.0533 0.861256 37.1583 0.818014 37.2819 0.818014H46.7334C46.8693 0.818014 46.9805 0.861256 47.0669 0.947741C47.1534 1.03422 47.1967 1.14542 47.1967 1.28132V2.65272C47.1967 2.77627 47.1534 2.88128 47.0669 2.96777C46.9805 3.05425 46.8693 3.09749 46.7334 3.09749H43.3234V13.3459C43.3234 13.4694 43.2802 13.5744 43.1937 13.6609C43.1072 13.7474 42.996 13.7907 42.8601 13.7907H41.1551Z" fill="#0066FF"/>
<path d="M49.5219 13.7907C49.3983 13.7907 49.2933 13.7474 49.2068 13.6609C49.1204 13.5744 49.0771 13.4694 49.0771 13.3459V1.26279C49.0771 1.13924 49.1204 1.03422 49.2068 0.947741C49.2933 0.861256 49.3983 0.818014 49.5219 0.818014H51.2639C51.3998 0.818014 51.5049 0.861256 51.579 0.947741C51.6655 1.03422 51.7087 1.13924 51.7087 1.26279V13.3459C51.7087 13.4694 51.6655 13.5744 51.579 13.6609C51.5049 13.7474 51.3998 13.7907 51.2639 13.7907H49.5219Z" fill="#0066FF"/>
<path d="M55.0599 13.7907C54.9363 13.7907 54.8313 13.7474 54.7448 13.6609C54.6584 13.5744 54.6151 13.4694 54.6151 13.3459V1.26279C54.6151 1.13924 54.6584 1.03422 54.7448 0.947741C54.8313 0.861256 54.9363 0.818014 55.0599 0.818014H56.7834C56.9069 0.818014 57.012 0.861256 57.0984 0.947741C57.1849 1.03422 57.2282 1.13924 57.2282 1.26279V11.5853H63.1029C63.2388 11.5853 63.35 11.6285 63.4365 11.715C63.523 11.8015 63.5662 11.9127 63.5662 12.0486V13.3459C63.5662 13.4694 63.523 13.5744 63.4365 13.6609C63.35 13.7474 63.2388 13.7907 63.1029 13.7907H55.0599Z" fill="#0066FF"/>
<path d="M70.1876 13.976C69.088 13.976 68.1429 13.7968 67.3522 13.4385C66.5615 13.0679 65.9437 12.5057 65.4989 11.7521C65.0542 10.9861 64.8132 10.0348 64.7762 8.89812C64.7638 8.36686 64.7577 7.84177 64.7577 7.32287C64.7577 6.80396 64.7638 6.2727 64.7762 5.72909C64.8132 4.60479 65.0603 3.66582 65.5175 2.91217C65.9746 2.15852 66.5985 1.5902 67.3892 1.20719C68.1923 0.824191 69.1251 0.63269 70.1876 0.63269C71.2502 0.63269 72.1829 0.824191 72.986 1.20719C73.7891 1.5902 74.4192 2.15852 74.8763 2.91217C75.3334 3.66582 75.5805 4.60479 75.6176 5.72909C75.6423 6.2727 75.6547 6.80396 75.6547 7.32287C75.6547 7.84177 75.6423 8.36686 75.6176 8.89812C75.5805 10.0348 75.3396 10.9861 74.8948 11.7521C74.4501 12.5057 73.8261 13.0679 73.0231 13.4385C72.2324 13.7968 71.2872 13.976 70.1876 13.976ZM70.1876 11.8448C70.9907 11.8448 71.6455 11.61 72.1521 11.1405C72.6586 10.6587 72.9304 9.88033 72.9675 8.80546C72.9922 8.26184 73.0045 7.76147 73.0045 7.30433C73.0045 6.83485 72.9922 6.33448 72.9675 5.80322C72.9428 5.08663 72.8069 4.50595 72.5598 4.06117C72.325 3.60404 72.0038 3.27664 71.5961 3.07896C71.1884 2.86893 70.7189 2.76391 70.1876 2.76391C69.6687 2.76391 69.2054 2.86893 68.7977 3.07896C68.39 3.27664 68.0626 3.60404 67.8155 4.06117C67.5807 4.50595 67.451 5.08663 67.4263 5.80322C67.414 6.33448 67.4078 6.83485 67.4078 7.30433C67.4078 7.76147 67.414 8.26184 67.4263 8.80546C67.4634 9.88033 67.7352 10.6587 68.2417 11.1405C68.7483 11.61 69.3969 11.8448 70.1876 11.8448Z" fill="#0066FF"/>
<path d="M83.129 13.976C81.9923 13.976 81.0225 13.7783 80.2194 13.3829C79.4287 12.9876 78.811 12.4193 78.3662 11.678C77.9338 10.9243 77.699 10.0286 77.662 8.99078C77.6496 8.45952 77.6434 7.89119 77.6434 7.2858C77.6434 6.66806 77.6496 6.08738 77.662 5.54376C77.699 4.51831 77.9338 3.64111 78.3662 2.91217C78.811 2.18323 79.4349 1.62108 80.238 1.22573C81.0534 0.830369 82.0171 0.63269 83.129 0.63269C84.0309 0.63269 84.8216 0.756239 85.5011 1.00334C86.1807 1.23808 86.7428 1.54695 87.1876 1.92995C87.6447 2.3006 87.9845 2.70214 88.2069 3.13456C88.4416 3.56698 88.5652 3.96851 88.5775 4.33916C88.5899 4.45035 88.559 4.54302 88.4848 4.61714C88.4107 4.69127 88.3119 4.72834 88.1883 4.72834H86.2795C86.1559 4.72834 86.0633 4.70363 86.0015 4.65421C85.9397 4.60479 85.8841 4.53066 85.8347 4.43182C85.7359 4.17237 85.5815 3.91909 85.3714 3.672C85.1614 3.41254 84.8772 3.19633 84.5189 3.02336C84.1606 2.85039 83.6973 2.76391 83.129 2.76391C82.2889 2.76391 81.6155 2.9863 81.109 3.43108C80.6148 3.87585 80.3491 4.61097 80.3121 5.63642C80.275 6.7113 80.275 7.79853 80.3121 8.89812C80.3491 9.94828 80.6209 10.7019 81.1275 11.1591C81.6464 11.6162 82.3259 11.8448 83.1661 11.8448C83.722 11.8448 84.2162 11.7459 84.6487 11.5482C85.0934 11.3506 85.4394 11.0417 85.6865 10.6216C85.9459 10.2016 86.0756 9.66412 86.0756 9.00931V8.43481H83.8147C83.6911 8.43481 83.5861 8.39157 83.4996 8.30508C83.4132 8.2186 83.3699 8.1074 83.3699 7.9715V6.98929C83.3699 6.85338 83.4132 6.74219 83.4996 6.6557C83.5861 6.56922 83.6911 6.52598 83.8147 6.52598H88.2439C88.3798 6.52598 88.4848 6.56922 88.559 6.6557C88.6455 6.74219 88.6887 6.85338 88.6887 6.98929V8.93518C88.6887 9.97299 88.4601 10.8687 88.003 11.6224C87.5582 12.376 86.9158 12.9567 86.0756 13.3644C85.2479 13.7721 84.2656 13.976 83.129 13.976Z" fill="#0066FF"/>
<path d="M91.5092 13.7907C91.3857 13.7907 91.2807 13.7474 91.1942 13.6609C91.1077 13.5744 91.0645 13.4694 91.0645 13.3459V1.26279C91.0645 1.13924 91.1077 1.03422 91.1942 0.947741C91.2807 0.861256 91.3857 0.818014 91.5092 0.818014H93.2513C93.3872 0.818014 93.4922 0.861256 93.5663 0.947741C93.6528 1.03422 93.6961 1.13924 93.6961 1.26279V13.3459C93.6961 13.4694 93.6528 13.5744 93.5663 13.6609C93.4922 13.7474 93.3872 13.7907 93.2513 13.7907H91.5092Z" fill="#0066FF"/>
<path d="M97.0472 13.7907C96.9237 13.7907 96.8187 13.7474 96.7322 13.6609C96.6457 13.5744 96.6025 13.4694 96.6025 13.3459V1.28132C96.6025 1.14542 96.6457 1.03422 96.7322 0.947741C96.8187 0.861256 96.9237 0.818014 97.0472 0.818014H98.4742C98.6472 0.818014 98.7707 0.861256 98.8449 0.947741C98.9314 1.02187 98.9869 1.07747 99.0117 1.11453L104.349 9.41702V1.28132C104.349 1.14542 104.386 1.03422 104.46 0.947741C104.547 0.861256 104.658 0.818014 104.794 0.818014H106.35C106.486 0.818014 106.598 0.861256 106.684 0.947741C106.771 1.03422 106.814 1.14542 106.814 1.28132V13.3273C106.814 13.4633 106.771 13.5744 106.684 13.6609C106.598 13.7474 106.493 13.7907 106.369 13.7907H104.923C104.751 13.7907 104.627 13.7474 104.553 13.6609C104.479 13.5744 104.423 13.5188 104.386 13.4941L99.0673 5.37697V13.3459C99.0673 13.4694 99.024 13.5744 98.9375 13.6609C98.851 13.7474 98.7398 13.7907 98.6039 13.7907H97.0472Z" fill="#0066FF"/>
</svg>
