<svg width="194" height="198" viewBox="0 0 194 198" fill="none" xmlns="http://www.w3.org/2000/svg">
<path d="M176.777 134.101L176.777 134.101C164.987 140.819 154.338 149.35 145.224 159.379L143.403 161.516L143.016 161.971L142.637 161.509L140.884 159.376C131.77 149.348 121.122 140.818 109.334 134.101L109.329 134.098L107.439 132.994L106.793 132.617L107.388 132.164C116.694 125.095 124.391 116.145 129.975 105.903C135.559 95.6599 138.902 84.3565 139.786 72.7352L139.787 72.7272C140.204 68.2018 140.204 63.6479 139.787 59.1226C139.102 52.2575 137.423 45.5272 134.803 39.1406L134.798 39.1283L134.798 39.1282C130.503 27.8072 122.856 18.0518 112.87 11.1538C102.884 4.2559 91.0302 0.540641 78.8769 0.5H78.4224C66.2712 0.54964 54.421 4.2685 44.4368 11.1652C34.4524 18.0621 26.8039 27.8125 22.501 39.1285L22.4969 39.1393L22.4967 39.1393C19.8969 45.5293 18.2398 52.2605 17.577 59.1235L17.5768 59.1252C17.124 63.6467 17.124 68.2018 17.5768 72.7233L17.578 72.7348L17.5778 72.7348C18.4699 84.3543 21.8172 95.655 27.4004 105.897C32.9836 116.138 40.6768 125.09 49.9761 132.165L50.5614 132.61L49.9321 132.99L48.1068 134.094L48.0957 134.101L48.0957 134.101C36.3036 140.82 25.6525 149.354 16.5367 159.385L16.5325 159.39C6.82491 169.807 1.15387 183.315 0.52055 197.5H28.6672C29.5783 183.958 41.309 171.007 62.6488 158.166M176.777 134.101L62.9066 158.595M176.777 134.101L176.788 134.094C182.056 130.909 187.43 127.853 193.5 125.208M176.777 134.101L193.5 124.663M62.6488 158.166L62.9066 158.595M62.6488 158.166C62.6487 158.166 62.6486 158.166 62.6486 158.166L62.9066 158.595M62.6488 158.166C62.9404 157.991 63.2326 157.814 63.5253 157.638C68.5226 154.625 73.664 151.525 78.8679 149.18L79.0866 149.082L79.3003 149.191C84.7873 151.988 90.1419 154.979 95.4289 158.099L95.4325 158.101C116.771 170.941 128.568 183.893 129.416 197.5M62.9066 158.595C63.196 158.42 63.4858 158.246 63.7759 158.071C68.7801 155.053 73.8976 151.968 79.0732 149.636C84.5491 152.428 89.8945 155.414 95.1747 158.53C116.752 171.513 128.356 184.497 128.942 198M129.416 197.5H128.942V198M129.416 197.5C129.426 197.659 129.435 197.819 129.442 197.978L128.942 198M129.416 197.5H158.135M128.942 198H158.603M158.603 198L158.104 197.972C158.113 197.815 158.123 197.658 158.135 197.5M158.603 198C159.385 184.237 173.857 165.087 194 157.751M158.603 198V197.5H158.135M158.135 197.5C158.677 190.576 162.523 182.452 168.658 175.144C174.873 167.741 183.477 161.127 193.5 157.402M194 157.751H193.5V157.402M194 157.751V124.992C193.833 125.064 193.666 125.136 193.5 125.208M194 157.751L193.829 157.281C193.719 157.321 193.609 157.361 193.5 157.402M193.5 157.402V125.208M193.5 125.208V124.663M193.5 124.663C187.318 127.341 181.862 130.442 176.53 133.666L193.5 124.663ZM111.513 61.9477C111.105 57.7538 110.084 53.6418 108.483 49.7417C106.274 43.6406 102.241 38.3603 96.9269 34.6122C91.6098 30.862 85.266 28.8258 78.751 28.778L78.7491 28.778C72.1687 28.7541 65.7416 30.7562 60.3475 34.5105C54.956 38.2631 50.8599 43.5829 48.6198 49.7427C47.0402 53.6461 46.0415 57.7584 45.6555 61.9494C45.364 64.895 45.364 67.862 45.6554 70.8077C46.575 80.7531 50.0945 90.285 55.8634 98.4543C61.6182 106.604 69.4111 113.114 78.4692 117.339L78.4866 117.417H78.7473L78.7646 117.339L78.9012 116.721C87.7121 112.51 95.2912 106.113 100.908 98.1426C106.614 90.0471 110.098 80.6085 111.015 70.7606L111.513 70.8099C111.513 70.8094 111.513 70.8089 111.513 70.8084C111.805 67.8619 111.805 64.8941 111.513 61.9477ZM111.513 61.9477C111.513 61.9476 111.513 61.9475 111.513 61.9474L111.015 61.9967L111.513 61.9483C111.513 61.9481 111.513 61.9479 111.513 61.9477ZM0 198H0.500326H0Z" fill="white" stroke="black"/>
</svg>
